<?xml version="1.0" standalone="no"?>
<!DOCTYPE svg PUBLIC "-//W3C//DTD SVG 20010904//EN"
 "http://www.w3.org/TR/2001/REC-SVG-20010904/DTD/svg10.dtd">
<svg version="1.0" xmlns="http://www.w3.org/2000/svg"
 width="512.000000pt" height="512.000000pt" viewBox="0 0 512.000000 512.000000"
 preserveAspectRatio="xMidYMid meet">

<g transform="translate(0.000000,512.000000) scale(0.100000,-0.100000)"
fill="#000000" stroke="none">
<path d="M3972 5107 c-12 -7 -28 -22 -36 -32 -7 -11 -161 -285 -341 -610 -180
-324 -331 -593 -334 -597 -4 -4 -38 23 -77 61 -140 134 -307 221 -501 260
-247 51 -501 9 -729 -120 -106 -59 -261 -213 -328 -327 -49 -82 -121 -255
-108 -259 4 -1 55 -3 114 -6 l107 -4 23 56 c117 289 426 475 758 458 296 -16
529 -166 658 -425 45 -91 47 -93 75 -88 16 3 65 6 109 6 92 0 89 -6 48 105
l-22 60 371 665 c406 728 398 709 344 770 -32 36 -94 49 -131 27z"/>
<path d="M4772 4353 c-58 -39 -1151 -896 -1151 -905 -1 -3 13 -10 31 -13 18
-4 64 -21 102 -37 39 -16 78 -32 87 -35 11 -3 196 136 553 416 485 382 536
425 547 460 15 50 -8 103 -56 125 -46 22 -65 20 -113 -11z"/>
<path d="M2402 3639 c-105 -18 -219 -92 -282 -184 -57 -83 -56 -86 13 -133 34
-23 77 -54 94 -68 31 -25 33 -25 39 -8 39 122 107 177 214 177 100 0 192 -73
206 -165 l7 -38 33 29 c18 17 60 48 94 71 33 22 60 47 60 54 0 22 -74 129
-114 164 -95 83 -238 123 -364 101z"/>
<path d="M218 2320 c-48 -37 -51 -61 -45 -328 7 -321 33 -448 133 -657 185
-387 565 -673 979 -735 44 -7 89 -14 101 -16 19 -3 23 -23 57 -259 38 -264 46
-292 93 -313 37 -18 1849 -17 1883 1 51 26 59 50 96 311 19 137 40 253 46 257
6 4 42 10 80 13 93 10 228 47 337 94 351 152 625 452 741 814 52 163 61 242
61 525 l0 255 -29 29 -29 29 -2240 0 c-2211 0 -2240 0 -2264 -20z m4339 -402
c-4 -180 -8 -214 -31 -297 -110 -390 -404 -679 -804 -789 l-97 -27 -1100 -3
c-983 -3 -1111 -1 -1199 13 -99 17 -235 59 -311 97 -166 84 -341 240 -440 392
-132 202 -185 401 -185 694 l0 122 2086 0 2086 0 -5 -202z m-1232 -1365 c-7
-35 -45 -315 -45 -325 0 -5 -360 -8 -800 -8 l-799 0 -6 32 c-5 30 -45 319 -45
325 0 2 382 3 850 3 l850 0 -5 -27z"/>
</g>
</svg>
